<?xml version="1.0" encoding="utf-8"?>
<!-- Generator: Adobe Illustrator 14.0.0, SVG Export Plug-In . SVG Version: 6.00 Build 43363)  -->
<!DOCTYPE svg PUBLIC "-//W3C//DTD SVG 1.1//EN" "http://www.w3.org/Graphics/SVG/1.1/DTD/svg11.dtd">
<svg version="1.1" id="Layer_1" xmlns="http://www.w3.org/2000/svg" xmlns:xlink="http://www.w3.org/1999/xlink" x="0px" y="0px"
	  viewBox="0 0 40 40" enable-background="new 0 0 40 40" xml:space="preserve">
<path d="M36.705,34.289L26.059,23.615c3.918-4.69,3.688-11.708-0.707-16.114C23.1,5.243,20.104,4,16.919,4S10.74,5.243,8.488,7.501
	c-4.647,4.66-4.647,12.241,0,16.899c2.253,2.257,5.248,3.5,8.431,3.5c2.866,0,5.573-1.015,7.728-2.86l10.639,10.665
	C35.479,35.902,35.738,36,35.994,36s0.514-0.098,0.709-0.293C37.096,35.316,37.097,34.68,36.705,34.289z M9.766,23.126
	c-3.945-3.958-3.945-10.395,0-14.351c1.912-1.914,4.452-2.97,7.153-2.97s5.243,1.056,7.153,2.97c3.946,3.956,3.946,10.394,0,14.351
	c-1.91,1.914-4.452,2.969-7.153,2.969S11.678,25.04,9.766,23.126z"/>
</svg>
